<svg width="24" height="24" viewBox="0 0 24 24" fill="none" xmlns="http://www.w3.org/2000/svg">
<rect width="24" height="24" rx="12" fill="#FFD8BF"/>
<g clip-path="url(#clip0_1309_24612)">
<path d="M14.2324 13.2871H15.3574C15.2988 13.8262 15.1445 14.3086 14.8945 14.7344C14.6445 15.1602 14.291 15.498 13.834 15.748C13.377 15.9941 12.8066 16.1172 12.123 16.1172C11.623 16.1172 11.168 16.0234 10.7578 15.8359C10.3516 15.6484 10.002 15.3828 9.70898 15.0391C9.41602 14.6914 9.18945 14.2754 9.0293 13.791C8.87305 13.3027 8.79492 12.7598 8.79492 12.1621V11.3125C8.79492 10.7148 8.87305 10.1738 9.0293 9.68945C9.18945 9.20117 9.41797 8.7832 9.71484 8.43555C10.0156 8.08789 10.377 7.82031 10.7988 7.63281C11.2207 7.44531 11.6953 7.35156 12.2227 7.35156C12.8672 7.35156 13.4121 7.47266 13.8574 7.71484C14.3027 7.95703 14.6484 8.29297 14.8945 8.72266C15.1445 9.14844 15.2988 9.64258 15.3574 10.2051H14.2324C14.1777 9.80664 14.0762 9.46484 13.9277 9.17969C13.7793 8.89062 13.5684 8.66797 13.2949 8.51172C13.0215 8.35547 12.6641 8.27734 12.2227 8.27734C11.8438 8.27734 11.5098 8.34961 11.2207 8.49414C10.9355 8.63867 10.6953 8.84375 10.5 9.10938C10.3086 9.375 10.1641 9.69336 10.0664 10.0645C9.96875 10.4355 9.91992 10.8477 9.91992 11.3008V12.1621C9.91992 12.5801 9.96289 12.9727 10.0488 13.3398C10.1387 13.707 10.2734 14.0293 10.4531 14.3066C10.6328 14.584 10.8613 14.8027 11.1387 14.9629C11.416 15.1191 11.7441 15.1973 12.123 15.1973C12.6035 15.1973 12.9863 15.1211 13.2715 14.9688C13.5566 14.8164 13.7715 14.5977 13.916 14.3125C14.0645 14.0273 14.1699 13.6855 14.2324 13.2871Z" fill="#FA541C"/>
</g>
<defs>
<clipPath id="clip0_1309_24612">
<rect width="24" height="24" fill="white"/>
</clipPath>
</defs>
</svg>
