<svg width="93" height="32" viewBox="0 0 93 32" fill="none" xmlns="http://www.w3.org/2000/svg">
<g clip-path="url(#clip0_1305_24562)">
<path d="M54.2822 11.8231L59.6458 13.2043L74.7906 0L54.2822 11.8231Z" fill="#3FDDFE"/>
<path d="M62.2578 13.8768L68.3343 15.4416L74.7906 0L62.2578 13.8768Z" fill="#3FDDFE"/>
<path d="M74.7903 0L59.6455 13.2043L62.2575 17.6L64.4978 14.4538L62.2575 13.8768L74.7903 0Z" fill="#4D7FFD"/>
<path d="M62.2578 13.877V17.6002L64.4982 14.454L62.2578 13.877Z" fill="#240065"/>
<path d="M15.8076 26.0281V15.791C15.8076 15.4012 16.052 15.1572 16.4188 15.1572H18.8634C19.2301 15.1572 19.4745 15.4009 19.4745 15.791V26.0281C19.4745 26.418 19.2301 26.6619 18.8634 26.6619H16.4188C16.052 26.6619 15.8076 26.4182 15.8076 26.0281Z" fill="#240065"/>
<path d="M17.6411 13.8691C18.6537 13.8691 19.4745 13.0506 19.4745 12.041C19.4745 11.0314 18.6537 10.2129 17.6411 10.2129C16.6285 10.2129 15.8076 11.0314 15.8076 12.041C15.8076 13.0506 16.6285 13.8691 17.6411 13.8691Z" fill="#3FDDFE"/>
<path d="M0 25.9897V10.246C0 9.85821 0.244414 9.59961 0.611152 9.59961H7.92023C11.7092 9.59961 13.5917 11.7713 13.5917 14.3305C13.5917 15.9333 12.8094 17.3294 11.0738 18.0272C12.8094 18.6217 14.2029 20.1728 14.2029 21.905C14.2029 24.49 12.3451 26.6617 8.53138 26.6617H0.611152C0.244414 26.6617 0 26.4031 0 25.9897ZM9.87601 14.7441C9.87601 13.9685 9.41146 13.2188 8.06706 13.2188H3.789V16.373L7.99353 16.3986C9.21607 16.3986 9.87601 15.5455 9.87601 14.7441ZM8.28697 23.0425C9.99833 23.0425 10.4139 22.06 10.4139 21.3364C10.4139 20.5091 9.80271 19.7852 8.77603 19.7852H3.789V23.0425H8.28697Z" fill="#240065"/>
<path d="M21.0791 26.0034V24.9311C21.0791 24.663 21.1036 24.4923 21.1524 24.3704C21.8614 22.5425 23.8414 20.0075 25.4305 18.4231H21.7393C21.3483 18.4231 21.0793 18.1552 21.0793 17.7651V15.8152C21.0793 15.4251 21.3483 15.1572 21.7393 15.1572H29.7576C30.1486 15.1572 30.4175 15.4009 30.4175 15.8152L30.393 16.9851C30.393 17.2774 30.3442 17.4972 30.1731 17.6678C28.4617 19.4228 26.0906 22.1526 25.553 23.5664H29.8799C30.2709 23.5664 30.5398 23.8343 30.5398 24.2244V26.0037C30.5398 26.3935 30.2709 26.6617 29.8799 26.6617H21.6907C21.299 26.6617 21.0791 26.3933 21.0791 26.0034Z" fill="#240065"/>
<path d="M32.1445 26.0288V16.366C32.1445 13.1529 33.3162 9.59961 37.8078 9.59961C38.1008 9.59961 38.369 9.86728 38.4181 10.1105L38.7353 11.9116C38.8086 12.3255 38.662 12.6418 38.2229 12.7149C36.3677 13.007 35.6109 13.9318 35.6109 15.806H38.5402C38.9064 15.806 39.1749 16.0494 39.1749 16.4144V18.3859C39.1749 18.7511 38.9062 18.9943 38.5402 18.9943H35.733V26.0286C35.733 26.418 35.4888 26.6612 35.1228 26.6612H32.755C32.3887 26.6617 32.1445 26.4182 32.1445 26.0288Z" fill="#240065"/>
<path d="M40.7793 26.0281V10.209C40.7793 9.84331 41.0237 9.59961 41.3904 9.59961H43.7615C44.1283 9.59961 44.3727 9.84331 44.3727 10.209V26.0279C44.3727 26.4178 44.1283 26.6615 43.7615 26.6615H41.3904C41.0237 26.6617 40.7793 26.4178 40.7793 26.0281Z" fill="#240065"/>
<path d="M48.1044 31.0734C47.7865 30.9515 47.7132 30.6349 47.86 30.3179L48.5442 28.7093C48.6666 28.3436 49.0331 28.2219 49.3998 28.3923C50.2796 28.7824 50.842 28.9043 51.4532 28.9043C53.5065 28.9043 54.4111 27.5881 54.1422 25.6136C53.531 26.3449 52.4553 26.9056 51.0867 26.9056C48.5442 26.9056 45.9775 25.2237 45.9775 21.0556V15.7908C45.9775 15.4009 46.222 15.1572 46.5887 15.1572H49.0088C49.3753 15.1572 49.6197 15.4009 49.6197 15.7908V21.1774C49.6197 22.8593 50.3532 23.8101 51.7711 23.8101C52.8221 23.8101 53.8 23.298 54.191 22.1771V15.7908C54.191 15.4009 54.4354 15.1572 54.8266 15.1572H57.1489C57.5157 15.1572 57.7601 15.4009 57.7601 15.7908V25.6136C57.7601 30.391 55.4621 31.9998 51.9665 31.9998C50.3532 31.9998 49.2289 31.7072 48.1044 31.0734Z" fill="#240065"/>
</g>
<path d="M67.2089 25.2096V26.4189H62.167V19.9072H67.0879V21.1165H63.6647V22.5305H66.6879V23.7026H63.6647V25.2096H67.2089Z" fill="#3FDDFE"/>
<path d="M74.3335 26.4189L74.3242 22.5119L72.4079 25.7305H71.7288L69.8219 22.5956V26.4189H68.4079V19.9072H69.6544L72.0916 23.9537L74.4916 19.9072H75.7288L75.7474 26.4189H74.3335Z" fill="#3FDDFE"/>
<path d="M81.5807 25.0235H78.5575L77.9807 26.4189H76.4365L79.3389 19.9072H80.8272L83.7389 26.4189H82.1575L81.5807 25.0235ZM81.1063 23.8793L80.0737 21.3863L79.0412 23.8793H81.1063Z" fill="#3FDDFE"/>
<path d="M84.4144 19.9072H85.9214V26.4189H84.4144V19.9072Z" fill="#3FDDFE"/>
<path d="M87.4668 19.9072H88.9738V25.1909H92.2389V26.4189H87.4668V19.9072Z" fill="#3FDDFE"/>
<defs>
<clipPath id="clip0_1305_24562">
<rect width="74.7907" height="32" fill="white"/>
</clipPath>
</defs>
</svg>
