<svg width="16" height="16" viewBox="0 0 16 16" fill="none" xmlns="http://www.w3.org/2000/svg">
<path fill-rule="evenodd" clip-rule="evenodd" d="M7.99935 2.00033C6.1584 2.00033 4.66602 3.49271 4.66602 5.33366V10.667C4.66602 11.0352 4.36754 11.3337 3.99935 11.3337C2.1584 11.3337 0.666016 9.84128 0.666016 8.00033C0.666016 6.37386 1.83091 5.01947 3.37189 4.72596C3.66972 2.43575 5.62798 0.666992 7.99935 0.666992C10.3707 0.666992 12.329 2.43575 12.6268 4.72596C14.1678 5.01947 15.3327 6.37386 15.3327 8.00033C15.3327 9.62679 14.1678 10.9812 12.6268 11.2747C12.329 13.5649 10.3707 15.3337 7.99935 15.3337C7.63116 15.3337 7.33268 15.0352 7.33268 14.667C7.33268 14.2988 7.63116 14.0003 7.99935 14.0003C9.84029 14.0003 11.3327 12.5079 11.3327 10.667V5.33366C11.3327 3.49271 9.84029 2.00033 7.99935 2.00033ZM12.666 9.88652C13.4428 9.61197 13.9993 8.87114 13.9993 8.00033C13.9993 7.12951 13.4428 6.38868 12.666 6.11413V9.88652ZM3.33268 6.11413C2.55589 6.38868 1.99935 7.12951 1.99935 8.00033C1.99935 8.87114 2.55589 9.61197 3.33268 9.88652V6.11413Z" fill="black" fill-opacity="0.85"/>
</svg>
