<svg width="15" height="14" viewBox="0 0 15 14" fill="none" xmlns="http://www.w3.org/2000/svg">
<g clip-path="url(#clip0_1309_26598)">
<rect width="14" height="14" transform="translate(0.5)" fill="white" fill-opacity="0.01"/>
<path d="M7.96863 1.37585H7.03113C6.94779 1.37585 6.90613 1.41752 6.90613 1.50085V6.4071H2.25024C2.16691 6.4071 2.12524 6.44877 2.12524 6.5321V7.46961C2.12524 7.55294 2.16691 7.59461 2.25024 7.59461H6.90613V12.5009C6.90613 12.5842 6.94779 12.6259 7.03113 12.6259H7.96863C8.05196 12.6259 8.09363 12.5842 8.09363 12.5009V7.59461H12.7502C12.8336 7.59461 12.8752 7.55294 12.8752 7.46961V6.5321C12.8752 6.44877 12.8336 6.4071 12.7502 6.4071H8.09363V1.50085C8.09363 1.41752 8.05196 1.37585 7.96863 1.37585Z" fill="black" fill-opacity="0.85"/>
</g>
<defs>
<clipPath id="clip0_1309_26598">
<rect width="14" height="14" fill="white" transform="translate(0.5)"/>
</clipPath>
</defs>
</svg>
