<svg width="14" height="15" viewBox="0 0 14 15" fill="none" xmlns="http://www.w3.org/2000/svg">
<g clip-path="url(#clip0_1420_26720)">
<rect width="14" height="14" transform="translate(0 0.0710449)" fill="white" fill-opacity="0.01"/>
<g clip-path="url(#clip1_1420_26720)">
<path d="M12 6.32312H10.9375V2.82312C10.9375 1.71843 10.0422 0.82312 8.9375 0.82312H5.0625C3.95781 0.82312 3.0625 1.71843 3.0625 2.82312V6.32312H2C1.72344 6.32312 1.5 6.54656 1.5 6.82312V12.8231C1.5 13.0997 1.72344 13.3231 2 13.3231H12C12.2766 13.3231 12.5 13.0997 12.5 12.8231V6.82312C12.5 6.54656 12.2766 6.32312 12 6.32312ZM4.1875 2.82312C4.1875 2.34031 4.57969 1.94812 5.0625 1.94812H8.9375C9.42031 1.94812 9.8125 2.34031 9.8125 2.82312V6.32312H4.1875V2.82312ZM11.375 12.1981H2.625V7.44812H11.375V12.1981ZM6.5625 10.0262V10.8544C6.5625 10.9231 6.61875 10.9794 6.6875 10.9794H7.3125C7.38125 10.9794 7.4375 10.9231 7.4375 10.8544V10.0262C7.56648 9.93364 7.66275 9.80251 7.71245 9.65171C7.76216 9.50091 7.76273 9.33823 7.71409 9.18708C7.66545 9.03594 7.57011 8.90412 7.44179 8.81061C7.31346 8.7171 7.15878 8.66672 7 8.66672C6.84122 8.66672 6.68654 8.7171 6.55821 8.81061C6.42989 8.90412 6.33455 9.03594 6.28591 9.18708C6.23727 9.33823 6.23784 9.50091 6.28755 9.65171C6.33725 9.80251 6.43352 9.93364 6.5625 10.0262Z" fill="black" fill-opacity="0.85"/>
</g>
</g>
<defs>
<clipPath id="clip0_1420_26720">
<rect width="14" height="14" fill="white" transform="translate(0 0.0710449)"/>
</clipPath>
<clipPath id="clip1_1420_26720">
<rect width="14" height="14" fill="white" transform="translate(0 0.0710449)"/>
</clipPath>
</defs>
</svg>
