<svg width="14" height="14" viewBox="0 0 14 14" fill="none" xmlns="http://www.w3.org/2000/svg">
<g clip-path="url(#clip0_1420_29450)">
<rect width="14" height="14" fill="white" fill-opacity="0.01"/>
<g clip-path="url(#clip1_1420_29450)">
<path d="M13.4497 8.77888L12.4263 7.90388C12.4747 7.607 12.4997 7.30388 12.4997 7.00075C12.4997 6.69763 12.4747 6.3945 12.4263 6.09763L13.4497 5.22263C13.5269 5.15654 13.5822 5.06853 13.6081 4.97028C13.6341 4.87203 13.6295 4.76821 13.595 4.67263L13.581 4.632C13.2992 3.84454 12.8773 3.11456 12.3356 2.47731L12.3075 2.4445C12.2418 2.36724 12.1542 2.3117 12.0563 2.2852C11.9584 2.2587 11.8548 2.26249 11.7591 2.29606L10.4888 2.74763C10.02 2.36325 9.49658 2.06013 8.93096 1.84763L8.68565 0.519501C8.66714 0.419567 8.61866 0.32763 8.54666 0.255904C8.47465 0.184178 8.38253 0.136058 8.28252 0.117938L8.24034 0.110126C7.42627 -0.0367493 6.57002 -0.0367493 5.75596 0.110126L5.71377 0.117938C5.61377 0.136058 5.52164 0.184178 5.44964 0.255904C5.37763 0.32763 5.32916 0.419567 5.31065 0.519501L5.06377 1.85388C4.50266 2.06642 3.98013 2.36938 3.5169 2.75075L2.23721 2.29606C2.14153 2.26222 2.03782 2.2583 1.93986 2.28481C1.8419 2.31133 1.75432 2.36702 1.68877 2.4445L1.66065 2.47731C1.11963 3.11501 0.697798 3.84487 0.415335 4.632L0.401273 4.67263C0.33096 4.86794 0.388773 5.08669 0.546585 5.22263L1.58252 6.107C1.53409 6.40075 1.51065 6.70075 1.51065 6.99919C1.51065 7.29919 1.53409 7.59919 1.58252 7.89138L0.546585 8.77575C0.469391 8.84184 0.414142 8.92985 0.388185 9.0281C0.362228 9.12634 0.366793 9.23016 0.401273 9.32575L0.415335 9.36638C0.698148 10.1539 1.1169 10.8804 1.66065 11.5211L1.68877 11.5539C1.75448 11.6311 1.84206 11.6867 1.93996 11.7132C2.03787 11.7397 2.1415 11.7359 2.23721 11.7023L3.5169 11.2476C3.98252 11.6304 4.50284 11.9336 5.06377 12.1445L5.31065 13.4789C5.32916 13.5788 5.37763 13.6707 5.44964 13.7425C5.52164 13.8142 5.61377 13.8623 5.71377 13.8804L5.75596 13.8883C6.5775 14.0359 7.41879 14.0359 8.24034 13.8883L8.28252 13.8804C8.38253 13.8623 8.47465 13.8142 8.54666 13.7425C8.61866 13.6707 8.66714 13.5788 8.68565 13.4789L8.93096 12.1508C9.49636 11.9388 10.0227 11.6347 10.4888 11.2508L11.7591 11.7023C11.8548 11.7362 11.9585 11.7401 12.0564 11.7136C12.1544 11.687 12.242 11.6314 12.3075 11.5539L12.3356 11.5211C12.8794 10.8789 13.2981 10.1539 13.581 9.36638L13.595 9.32575C13.6653 9.13356 13.6075 8.91481 13.4497 8.77888ZM11.3169 6.282C11.356 6.51794 11.3763 6.76013 11.3763 7.00231C11.3763 7.2445 11.356 7.48669 11.3169 7.72263L11.2138 8.34919L12.381 9.34763C12.204 9.75527 11.9807 10.1411 11.7153 10.4976L10.2653 9.98356L9.77471 10.3867C9.40127 10.6929 8.98565 10.9336 8.53565 11.1023L7.94034 11.3258L7.66065 12.8414C7.21935 12.8914 6.77382 12.8914 6.33252 12.8414L6.05283 11.3226L5.46221 11.0961C5.0169 10.9273 4.60284 10.6867 4.23252 10.382L3.7419 9.97731L2.28252 10.4961C2.0169 10.1383 1.79502 9.75231 1.6169 9.34606L2.79659 8.33825L2.69502 7.71325C2.65752 7.48044 2.63721 7.23981 2.63721 7.00231C2.63721 6.76325 2.65596 6.52419 2.69502 6.29138L2.79659 5.66638L1.6169 4.65856C1.79346 4.25075 2.0169 3.86638 2.28252 3.50856L3.7419 4.02731L4.23252 3.62263C4.60284 3.31794 5.0169 3.07731 5.46221 2.90856L6.0544 2.68513L6.33408 1.16638C6.77315 1.11638 7.22159 1.11638 7.66221 1.16638L7.9419 2.682L8.53721 2.90544C8.98565 3.07419 9.40283 3.31481 9.77627 3.62106L10.2669 4.02419L11.7169 3.51013C11.9825 3.86794 12.2044 4.25388 12.3825 4.66013L11.2153 5.65856L11.3169 6.282ZM6.99971 4.09606C5.48096 4.09606 4.24971 5.32731 4.24971 6.84606C4.24971 8.36481 5.48096 9.59606 6.99971 9.59606C8.51846 9.59606 9.74971 8.36481 9.74971 6.84606C9.74971 5.32731 8.51846 4.09606 6.99971 4.09606ZM8.23721 8.08356C8.0749 8.24634 7.88201 8.37542 7.66963 8.46337C7.45725 8.55133 7.22958 8.59642 6.99971 8.59606C6.53252 8.59606 6.09346 8.41325 5.76221 8.08356C5.59943 7.92125 5.47036 7.72836 5.3824 7.51598C5.29445 7.30361 5.24935 7.07593 5.24971 6.84606C5.24971 6.37888 5.43252 5.93981 5.76221 5.60856C6.09346 5.27731 6.53252 5.09606 6.99971 5.09606C7.4669 5.09606 7.90596 5.27731 8.23721 5.60856C8.39999 5.77087 8.52906 5.96376 8.61702 6.17614C8.70497 6.38852 8.75007 6.61619 8.74971 6.84606C8.74971 7.31325 8.5669 7.75231 8.23721 8.08356Z" fill="black" fill-opacity="0.85"/>
</g>
</g>
<defs>
<clipPath id="clip0_1420_29450">
<rect width="14" height="14" fill="white"/>
</clipPath>
<clipPath id="clip1_1420_29450">
<rect width="14" height="14" fill="white"/>
</clipPath>
</defs>
</svg>
