<svg width="14" height="15" viewBox="0 0 14 15" fill="none" xmlns="http://www.w3.org/2000/svg">
<g clip-path="url(#clip0_1420_26683)">
<rect width="14" height="14" transform="translate(0 0.0710449)" fill="white" fill-opacity="0.01"/>
<g clip-path="url(#clip1_1420_26683)">
<path d="M12.7498 0.823059H1.24976C0.973193 0.823059 0.749756 1.0465 0.749756 1.32306V12.8231C0.749756 13.0996 0.973193 13.3231 1.24976 13.3231H12.7498C13.0263 13.3231 13.2498 13.0996 13.2498 12.8231V1.32306C13.2498 1.0465 13.0263 0.823059 12.7498 0.823059ZM12.1248 8.07306H7.24976V6.07306H12.1248V8.07306ZM12.1248 12.1981H1.87476V1.94806H12.1248V5.07306H6.74976C6.47319 5.07306 6.24976 5.2965 6.24976 5.57306V8.57306C6.24976 8.84962 6.47319 9.07306 6.74976 9.07306H12.1248V12.1981ZM8.06226 7.07306C8.06226 7.23882 8.1281 7.39779 8.24531 7.515C8.36252 7.63221 8.5215 7.69806 8.68726 7.69806C8.85302 7.69806 9.01199 7.63221 9.1292 7.515C9.24641 7.39779 9.31226 7.23882 9.31226 7.07306C9.31226 6.9073 9.24641 6.74833 9.1292 6.63112C9.01199 6.51391 8.85302 6.44806 8.68726 6.44806C8.5215 6.44806 8.36252 6.51391 8.24531 6.63112C8.1281 6.74833 8.06226 6.9073 8.06226 7.07306Z" fill="black" fill-opacity="0.85"/>
</g>
</g>
<defs>
<clipPath id="clip0_1420_26683">
<rect width="14" height="14" fill="white" transform="translate(0 0.0710449)"/>
</clipPath>
<clipPath id="clip1_1420_26683">
<rect width="14" height="14" fill="white" transform="translate(0 0.0710449)"/>
</clipPath>
</defs>
</svg>
