<svg width="14" height="15" viewBox="0 0 14 15" fill="none" xmlns="http://www.w3.org/2000/svg">
<g clip-path="url(#clip0_1420_26677)">
<path d="M12.4136 11.0005C12.1189 10.3024 11.6911 9.66819 11.1542 9.13334C10.619 8.59695 9.98491 8.16928 9.28705 7.87396C9.2808 7.87084 9.27455 7.86928 9.2683 7.86615C10.2417 7.16303 10.8746 6.01771 10.8746 4.72553C10.8746 2.5849 9.14018 0.850525 6.99955 0.850525C4.85893 0.850525 3.12455 2.5849 3.12455 4.72553C3.12455 6.01771 3.75736 7.16303 4.7308 7.86771C4.72455 7.87084 4.7183 7.8724 4.71205 7.87553C4.01205 8.17084 3.38393 8.59428 2.84486 9.1349C2.30847 9.67016 1.88081 10.3042 1.58549 11.0021C1.29537 11.6853 1.1389 12.4178 1.12455 13.1599C1.12413 13.1766 1.12706 13.1932 1.13315 13.2087C1.13925 13.2242 1.14839 13.2384 1.16004 13.2503C1.17169 13.2623 1.18561 13.2717 1.20098 13.2782C1.21636 13.2847 1.23287 13.288 1.24955 13.288H2.18705C2.2558 13.288 2.31049 13.2333 2.31205 13.1662C2.3433 11.9599 2.82768 10.8302 3.68393 9.97396C4.56986 9.08803 5.74643 8.60053 6.99955 8.60053C8.25268 8.60053 9.42924 9.08803 10.3152 9.97396C11.1714 10.8302 11.6558 11.9599 11.6871 13.1662C11.6886 13.2349 11.7433 13.288 11.8121 13.288H12.7496C12.7662 13.288 12.7827 13.2847 12.7981 13.2782C12.8135 13.2717 12.8274 13.2623 12.8391 13.2503C12.8507 13.2384 12.8599 13.2242 12.8659 13.2087C12.872 13.1932 12.875 13.1766 12.8746 13.1599C12.8589 12.413 12.7042 11.6865 12.4136 11.0005ZM6.99955 7.41303C6.28236 7.41303 5.60736 7.13334 5.09955 6.62553C4.59174 6.11771 4.31205 5.44271 4.31205 4.72553C4.31205 4.00834 4.59174 3.33334 5.09955 2.82553C5.60736 2.31771 6.28236 2.03803 6.99955 2.03803C7.71674 2.03803 8.39174 2.31771 8.89955 2.82553C9.40736 3.33334 9.68705 4.00834 9.68705 4.72553C9.68705 5.44271 9.40736 6.11771 8.89955 6.62553C8.39174 7.13334 7.71674 7.41303 6.99955 7.41303Z" fill="black" fill-opacity="0.85"/>
</g>
<defs>
<clipPath id="clip0_1420_26677">
<rect width="14" height="14" fill="white" transform="translate(0 0.0710449)"/>
</clipPath>
</defs>
</svg>
