<svg width="20" height="20" viewBox="0 0 20 20" fill="none" xmlns="http://www.w3.org/2000/svg">
<path d="M7.67892 8.4382H18.3932C18.4914 8.4382 18.5718 8.35784 18.5718 8.25963V7.00963C18.5718 6.91141 18.4914 6.83106 18.3932 6.83106H7.67892C7.58071 6.83106 7.50035 6.91141 7.50035 7.00963V8.25963C7.50035 8.35784 7.58071 8.4382 7.67892 8.4382ZM7.50035 12.9918C7.50035 13.09 7.58071 13.1703 7.67892 13.1703H18.3932C18.4914 13.1703 18.5718 13.09 18.5718 12.9918V11.7418C18.5718 11.6436 18.4914 11.5632 18.3932 11.5632H7.67892C7.58071 11.5632 7.50035 11.6436 7.50035 11.7418V12.9918ZM18.7504 2.14355H1.25035C1.15213 2.14355 1.07178 2.22391 1.07178 2.32213V3.57213C1.07178 3.67034 1.15213 3.7507 1.25035 3.7507H18.7504C18.8486 3.7507 18.9289 3.67034 18.9289 3.57213V2.32213C18.9289 2.22391 18.8486 2.14355 18.7504 2.14355ZM18.7504 16.2507H1.25035C1.15213 16.2507 1.07178 16.3311 1.07178 16.4293V17.6793C1.07178 17.7775 1.15213 17.8578 1.25035 17.8578H18.7504C18.8486 17.8578 18.9289 17.7775 18.9289 17.6793V16.4293C18.9289 16.3311 18.8486 16.2507 18.7504 16.2507ZM1.75035 12.9047L5.23919 10.1569C5.26268 10.1385 5.28167 10.1149 5.29473 10.0881C5.30779 10.0612 5.31457 10.0317 5.31457 10.0018C5.31457 9.97194 5.30779 9.94245 5.29473 9.91557C5.28167 9.8887 5.26268 9.86514 5.23919 9.84668L1.75035 7.09668C1.62088 6.994 1.42892 7.08552 1.42892 7.2507V12.7485C1.42891 12.7857 1.43939 12.8223 1.45916 12.8539C1.47893 12.8855 1.5072 12.9109 1.54073 12.9272C1.57426 12.9435 1.6117 12.95 1.64877 12.9461C1.68584 12.9421 1.72104 12.9278 1.75035 12.9047Z" fill="black" fill-opacity="0.85"/>
</svg>
