<svg width="14" height="15" viewBox="0 0 14 15" fill="none" xmlns="http://www.w3.org/2000/svg">
<g clip-path="url(#clip0_1420_26727)">
<rect width="14" height="14" transform="translate(0 0.0710449)" fill="white" fill-opacity="0.01"/>
<g clip-path="url(#clip1_1420_26727)">
<path d="M12.5626 10.5094H11.4642C11.3892 10.5094 11.3189 10.5422 11.272 10.6C11.1626 10.7329 11.0454 10.861 10.922 10.9829C10.4171 11.4882 9.81912 11.891 9.16104 12.1688C8.47925 12.4568 7.74646 12.6045 7.00635 12.6032C6.25792 12.6032 5.53292 12.4563 4.85167 12.1688C4.19359 11.891 3.59558 11.4882 3.09073 10.9829C2.58497 10.4792 2.18169 9.88225 1.90323 9.22505C1.61417 8.5438 1.46885 7.82036 1.46885 7.07192C1.46885 6.32349 1.61573 5.60005 1.90323 4.9188C2.18135 4.26099 2.58135 3.6688 3.09073 3.16099C3.6001 2.65317 4.19229 2.25317 4.85167 1.97505C5.53292 1.68755 6.25792 1.54067 7.00635 1.54067C7.75479 1.54067 8.47979 1.68599 9.16104 1.97505C9.82042 2.25317 10.4126 2.65317 10.922 3.16099C11.0454 3.28442 11.161 3.41255 11.272 3.5438C11.3189 3.60161 11.3907 3.63442 11.4642 3.63442H12.5626C12.661 3.63442 12.722 3.52505 12.6673 3.44224C11.4689 1.57974 9.37198 0.346923 6.98917 0.353173C3.24542 0.362548 0.243853 3.40161 0.281353 7.14067C0.318853 10.8204 3.31573 13.7907 7.00635 13.7907C9.38292 13.7907 11.4704 12.5594 12.6673 10.7016C12.7204 10.6188 12.661 10.5094 12.5626 10.5094ZM13.9517 6.97349L11.7345 5.22349C11.6517 5.15786 11.5314 5.21724 11.5314 5.32192V6.50942H6.6251C6.55635 6.50942 6.5001 6.56567 6.5001 6.63442V7.50942C6.5001 7.57817 6.55635 7.63442 6.6251 7.63442H11.5314V8.82192C11.5314 8.92661 11.6532 8.98599 11.7345 8.92036L13.9517 7.17036C13.9666 7.15867 13.9787 7.14373 13.987 7.12667C13.9953 7.10962 13.9996 7.0909 13.9996 7.07192C13.9996 7.05295 13.9953 7.03423 13.987 7.01717C13.9787 7.00012 13.9666 6.98518 13.9517 6.97349Z" fill="#FF4D4F"/>
</g>
</g>
<defs>
<clipPath id="clip0_1420_26727">
<rect width="14" height="14" fill="white" transform="translate(0 0.0710449)"/>
</clipPath>
<clipPath id="clip1_1420_26727">
<rect width="14" height="14" fill="white" transform="translate(0 0.0710449)"/>
</clipPath>
</defs>
</svg>
