<svg width="14" height="14" viewBox="0 0 14 14" fill="none" xmlns="http://www.w3.org/2000/svg">
<g clip-path="url(#clip0_1420_29430)">
<rect width="14" height="14" fill="white" fill-opacity="0.01"/>
<g clip-path="url(#clip1_1420_29430)">
<path d="M13.7899 6.88984L7.75241 0.855465L7.34772 0.450778C7.25551 0.359179 7.13082 0.30777 7.00085 0.30777C6.87087 0.30777 6.74618 0.359179 6.65397 0.450778L0.211783 6.88984C0.117301 6.98396 0.0426296 7.09604 -0.00782254 7.21949C-0.0582747 7.34294 -0.0834854 7.47524 -0.0819665 7.60859C-0.0757165 8.15859 0.382096 8.59765 0.932096 8.59765H1.59616V13.6867H12.4055V8.59765H13.0837C13.3508 8.59765 13.6024 8.49297 13.7915 8.3039C13.8846 8.21111 13.9583 8.10077 14.0085 7.97927C14.0586 7.85777 14.0842 7.72753 14.0837 7.59609C14.0837 7.33047 13.979 7.0789 13.7899 6.88984ZM7.87585 12.5617H6.12585V9.37422H7.87585V12.5617ZM11.2805 7.47265V12.5617H8.87585V8.99922C8.87585 8.6539 8.59616 8.37422 8.25085 8.37422H5.75085C5.40553 8.37422 5.12585 8.6539 5.12585 8.99922V12.5617H2.72116V7.47265H1.22116L7.00241 1.69609L7.36335 2.05703L12.7821 7.47265H11.2805Z" fill="black" fill-opacity="0.85"/>
</g>
</g>
<defs>
<clipPath id="clip0_1420_29430">
<rect width="14" height="14" fill="white"/>
</clipPath>
<clipPath id="clip1_1420_29430">
<rect width="14" height="14" fill="white"/>
</clipPath>
</defs>
</svg>
