<svg width="14" height="14" viewBox="0 0 14 14" fill="none" xmlns="http://www.w3.org/2000/svg">
<g clip-path="url(#clip0_1420_29442)">
<rect width="14" height="14" fill="white" fill-opacity="0.01"/>
<g clip-path="url(#clip1_1420_29442)">
<path d="M13.45 5.02701C13.0986 4.19531 12.5892 3.43968 11.95 2.80201C11.3123 2.16281 10.5567 1.6534 9.725 1.30201C8.86094 0.936389 7.94531 0.752014 7 0.752014C6.05469 0.752014 5.13906 0.936389 4.275 1.30201C3.4433 1.6534 2.68767 2.16281 2.05 2.80201C1.41079 3.43968 0.901382 4.19531 0.55 5.02701C0.184375 5.89108 0 6.8067 0 7.75202C0 9.82545 0.910937 11.7786 2.49844 13.113L2.525 13.1348C2.61563 13.2098 2.72969 13.252 2.84687 13.252H11.1547C11.2719 13.252 11.3859 13.2098 11.4766 13.1348L11.5031 13.113C13.0891 11.7786 14 9.82545 14 7.75202C14 6.8067 13.8141 5.89108 13.45 5.02701ZM10.8969 12.0645H3.10313C2.49937 11.5201 2.01682 10.8549 1.68681 10.1119C1.35679 9.36899 1.18667 8.56496 1.1875 7.75202C1.1875 6.19889 1.79219 4.73951 2.89062 3.64264C3.98906 2.5442 5.44844 1.93951 7 1.93951C8.55313 1.93951 10.0125 2.5442 11.1094 3.64264C12.2078 4.74108 12.8125 6.20045 12.8125 7.75202C12.8125 9.40201 12.1172 10.963 10.8969 12.0645ZM8.74219 5.58795C8.71869 5.56469 8.68697 5.55164 8.65391 5.55164C8.62084 5.55164 8.58912 5.56469 8.56563 5.58795L7.24531 6.90827C6.95312 6.83014 6.62969 6.90514 6.4 7.13483C6.31865 7.21603 6.2541 7.31247 6.21007 7.41865C6.16603 7.52482 6.14336 7.63863 6.14336 7.75358C6.14336 7.86852 6.16603 7.98234 6.21007 8.08851C6.2541 8.19468 6.31865 8.29113 6.4 8.37233C6.4812 8.45368 6.57765 8.51822 6.68382 8.56226C6.78999 8.6063 6.90381 8.62897 7.01875 8.62897C7.13369 8.62897 7.24751 8.6063 7.35368 8.56226C7.45985 8.51822 7.5563 8.45368 7.6375 8.37233C7.74632 8.26383 7.82458 8.12854 7.86436 7.98011C7.90414 7.83169 7.90404 7.67539 7.86406 7.52701L9.18437 6.2067C9.23281 6.15827 9.23281 6.07858 9.18437 6.03014L8.74219 5.58795ZM6.65625 4.00201H7.34375C7.4125 4.00201 7.46875 3.94576 7.46875 3.87701V2.62701C7.46875 2.55826 7.4125 2.50201 7.34375 2.50201H6.65625C6.5875 2.50201 6.53125 2.55826 6.53125 2.62701V3.87701C6.53125 3.94576 6.5875 4.00201 6.65625 4.00201ZM10.7188 7.40827V8.09577C10.7188 8.16452 10.775 8.22077 10.8438 8.22077H12.0938C12.1625 8.22077 12.2188 8.16452 12.2188 8.09577V7.40827C12.2188 7.33951 12.1625 7.28327 12.0938 7.28327H10.8438C10.775 7.28327 10.7188 7.33951 10.7188 7.40827ZM10.9172 4.32701L10.4312 3.84108C10.4078 3.81781 10.376 3.80476 10.343 3.80476C10.3099 3.80476 10.2782 3.81781 10.2547 3.84108L9.37031 4.72545C9.34705 4.74895 9.334 4.78067 9.334 4.81373C9.334 4.8468 9.34705 4.87852 9.37031 4.90201L9.85625 5.38795C9.90469 5.43639 9.98438 5.43639 10.0328 5.38795L10.9172 4.50358C10.9656 4.45514 10.9656 4.37545 10.9172 4.32701ZM3.75156 3.84108C3.72807 3.81781 3.69634 3.80476 3.66328 3.80476C3.63022 3.80476 3.59849 3.81781 3.575 3.84108L3.08906 4.32701C3.0658 4.35051 3.05275 4.38223 3.05275 4.4153C3.05275 4.44836 3.0658 4.48008 3.08906 4.50358L3.97344 5.38795C4.02187 5.43639 4.10156 5.43639 4.15 5.38795L4.63594 4.90201C4.68438 4.85358 4.68438 4.77389 4.63594 4.72545L3.75156 3.84108ZM3.09375 7.28327H1.84375C1.775 7.28327 1.71875 7.33951 1.71875 7.40827V8.09577C1.71875 8.16452 1.775 8.22077 1.84375 8.22077H3.09375C3.1625 8.22077 3.21875 8.16452 3.21875 8.09577V7.40827C3.21875 7.33951 3.1625 7.28327 3.09375 7.28327Z" fill="black" fill-opacity="0.85"/>
</g>
</g>
<defs>
<clipPath id="clip0_1420_29442">
<rect width="14" height="14" fill="white"/>
</clipPath>
<clipPath id="clip1_1420_29442">
<rect width="14" height="14" fill="white"/>
</clipPath>
</defs>
</svg>
