<svg width="14" height="15" viewBox="0 0 14 15" fill="none" xmlns="http://www.w3.org/2000/svg">
<g clip-path="url(#clip0_1420_26713)">
<rect width="14" height="14" transform="translate(0 0.0710449)" fill="white" fill-opacity="0.01"/>
<g clip-path="url(#clip1_1420_26713)">
<path d="M13.6564 6.23796L13.1939 1.35359C13.1705 1.10046 12.9689 0.900464 12.7158 0.875464L7.83139 0.412964H7.82514C7.77514 0.412964 7.73608 0.428589 7.70639 0.458276L0.3892 7.77547C0.374715 7.78992 0.363223 7.80709 0.355383 7.82599C0.347542 7.84489 0.343506 7.86516 0.343506 7.88562C0.343506 7.90609 0.347542 7.92635 0.355383 7.94525C0.363223 7.96415 0.374715 7.98132 0.3892 7.99578L6.07358 13.6802C6.10326 13.7098 6.14233 13.7255 6.18451 13.7255C6.2267 13.7255 6.26576 13.7098 6.29545 13.6802L13.6126 6.36296C13.6439 6.33015 13.6595 6.28484 13.6564 6.23796ZM6.18295 12.1114L1.95795 7.8864L8.20326 1.64109L12.0626 2.00671L12.4283 5.86609L6.18295 12.1114ZM9.62514 3.06921C8.86733 3.06921 8.25014 3.6864 8.25014 4.44421C8.25014 5.20203 8.86733 5.81921 9.62514 5.81921C10.383 5.81921 11.0001 5.20203 11.0001 4.44421C11.0001 3.6864 10.383 3.06921 9.62514 3.06921ZM9.62514 4.94421C9.34858 4.94421 9.12514 4.72078 9.12514 4.44421C9.12514 4.16765 9.34858 3.94421 9.62514 3.94421C9.9017 3.94421 10.1251 4.16765 10.1251 4.44421C10.1251 4.72078 9.9017 4.94421 9.62514 4.94421Z" fill="black" fill-opacity="0.85"/>
</g>
</g>
<defs>
<clipPath id="clip0_1420_26713">
<rect width="14" height="14" fill="white" transform="translate(0 0.0710449)"/>
</clipPath>
<clipPath id="clip1_1420_26713">
<rect width="14" height="14" fill="white" transform="translate(0 0.0710449)"/>
</clipPath>
</defs>
</svg>
