<svg width="14" height="15" viewBox="0 0 14 15" fill="none" xmlns="http://www.w3.org/2000/svg">
<g clip-path="url(#clip0_1420_26699)">
<rect width="14" height="14" transform="translate(0 0.0710449)" fill="white" fill-opacity="0.01"/>
<g clip-path="url(#clip1_1420_26699)">
<path d="M7.37618 3.33582H6.62462C6.55587 3.33582 6.49962 3.39207 6.49962 3.46082V7.76238C6.49962 7.80301 6.51837 7.84051 6.55118 7.86394L9.13399 9.74988C9.19024 9.79051 9.26837 9.77957 9.30899 9.72332L9.75587 9.11394C9.79805 9.05613 9.78555 8.97801 9.7293 8.93894L7.50118 7.32801V3.46082C7.50118 3.39207 7.44493 3.33582 7.37618 3.33582ZM10.8106 4.51082L13.2606 5.10926C13.3387 5.12801 13.4152 5.06863 13.4152 4.98894L13.4277 2.46551C13.4277 2.36082 13.3074 2.30144 13.2262 2.36707L10.7637 4.29051C10.7451 4.3049 10.7309 4.32426 10.7228 4.34635C10.7147 4.36844 10.713 4.39237 10.7179 4.41539C10.7228 4.4384 10.7341 4.45957 10.7505 4.47645C10.7669 4.49333 10.7877 4.50524 10.8106 4.51082ZM13.4309 9.21551L12.5449 8.91082C12.514 8.90023 12.4802 8.90215 12.4507 8.91617C12.4213 8.93018 12.3984 8.95518 12.3871 8.98582C12.3574 9.06551 12.3262 9.14363 12.2934 9.22176C12.0152 9.87957 11.6168 10.4718 11.1074 10.9796C10.6037 11.4849 10.0067 11.8876 9.34962 12.1655C8.66888 12.4533 7.93713 12.601 7.19805 12.5999C6.45118 12.5999 5.72774 12.4546 5.04649 12.1655C4.38936 11.8876 3.7924 11.4849 3.28868 10.9796C2.78086 10.4718 2.38243 9.87957 2.10274 9.22176C1.81652 8.54064 1.66987 7.80901 1.67149 7.07019C1.67149 6.32332 1.8168 5.59832 2.10586 4.91707C2.38399 4.25926 2.78243 3.66707 3.2918 3.15926C3.79552 2.65397 4.39249 2.25122 5.04962 1.97332C5.72774 1.68425 6.45274 1.53894 7.19962 1.53894C7.94649 1.53894 8.66993 1.68425 9.35118 1.97332C10.0083 2.25122 10.6053 2.65397 11.109 3.15926C11.2684 3.32019 11.4184 3.48738 11.5559 3.66394L12.4902 2.93269C11.2606 1.36082 9.34649 0.34988 7.19649 0.351442C3.45274 0.353005 0.44649 3.39363 0.48399 7.13894C0.52149 10.8186 3.51368 13.7889 7.19962 13.7889C10.0981 13.7889 12.5668 11.9514 13.5074 9.37801C13.5309 9.31238 13.4965 9.23894 13.4309 9.21551Z" fill="black" fill-opacity="0.85"/>
</g>
</g>
<defs>
<clipPath id="clip0_1420_26699">
<rect width="14" height="14" fill="white" transform="translate(0 0.0710449)"/>
</clipPath>
<clipPath id="clip1_1420_26699">
<rect width="14" height="14" fill="white" transform="translate(0 0.0710449)"/>
</clipPath>
</defs>
</svg>
