<svg width="14" height="15" viewBox="0 0 14 15" fill="none" xmlns="http://www.w3.org/2000/svg">
<g clip-path="url(#clip0_1420_26690)">
<rect width="14" height="14" transform="translate(0 0.0710449)" fill="white" fill-opacity="0.01"/>
<path d="M6.25 1.32214H1.5C1.3625 1.32214 1.25 1.43464 1.25 1.57214V6.32214C1.25 6.45964 1.3625 6.57214 1.5 6.57214H6.25C6.3875 6.57214 6.5 6.45964 6.5 6.32214V1.57214C6.5 1.43464 6.3875 1.32214 6.25 1.32214ZM5.4375 5.50964H2.3125V2.38464H5.4375V5.50964ZM12.5 1.32214H7.75C7.6125 1.32214 7.5 1.43464 7.5 1.57214V6.32214C7.5 6.45964 7.6125 6.57214 7.75 6.57214H12.5C12.6375 6.57214 12.75 6.45964 12.75 6.32214V1.57214C12.75 1.43464 12.6375 1.32214 12.5 1.32214ZM11.6875 5.50964H8.5625V2.38464H11.6875V5.50964ZM6.25 7.57214H1.5C1.3625 7.57214 1.25 7.68464 1.25 7.82214V12.5721C1.25 12.7096 1.3625 12.8221 1.5 12.8221H6.25C6.3875 12.8221 6.5 12.7096 6.5 12.5721V7.82214C6.5 7.68464 6.3875 7.57214 6.25 7.57214ZM5.4375 11.7596H2.3125V8.63464H5.4375V11.7596ZM12.5 7.57214H7.75C7.6125 7.57214 7.5 7.68464 7.5 7.82214V12.5721C7.5 12.7096 7.6125 12.8221 7.75 12.8221H12.5C12.6375 12.8221 12.75 12.7096 12.75 12.5721V7.82214C12.75 7.68464 12.6375 7.57214 12.5 7.57214ZM11.6875 11.7596H8.5625V8.63464H11.6875V11.7596Z" fill="black" fill-opacity="0.85"/>
</g>
<defs>
<clipPath id="clip0_1420_26690">
<rect width="14" height="14" fill="white" transform="translate(0 0.0710449)"/>
</clipPath>
</defs>
</svg>
