<svg width="14" height="15" viewBox="0 0 14 15" fill="none" xmlns="http://www.w3.org/2000/svg">
<g clip-path="url(#clip0_1420_26706)">
<rect width="14" height="14" transform="translate(0 0.0710449)" fill="white" fill-opacity="0.01"/>
<g clip-path="url(#clip1_1420_26706)">
<path d="M12.5451 1.72872L7.23569 -0.0806519C7.17163 -0.102527 7.08569 -0.113464 6.99976 -0.113464C6.91382 -0.113464 6.82788 -0.102527 6.76382 -0.0806519L1.45444 1.72872C1.32476 1.77247 1.21851 1.92247 1.21851 2.05997V9.59747C1.21851 9.73497 1.30757 9.91622 1.41538 10.0022L6.80132 14.199C6.85601 14.2412 6.92632 14.2631 6.99819 14.2631C7.07007 14.2631 7.14194 14.2412 7.19507 14.199L12.581 10.0022C12.6888 9.91779 12.7779 9.73654 12.7779 9.59747V2.05997C12.781 1.92247 12.6748 1.77404 12.5451 1.72872ZM11.656 9.29747L6.99976 12.9256L2.34351 9.29747V2.61622L6.99976 1.02872L11.656 2.61622V9.29747ZM5.31538 6.15685C5.26851 6.09279 5.19351 6.05372 5.11226 6.05372H4.24976C4.14819 6.05372 4.08882 6.16935 4.14819 6.25216L6.12319 8.97091C6.14655 9.00288 6.17711 9.02888 6.21241 9.0468C6.2477 9.06473 6.28673 9.07407 6.32632 9.07407C6.36591 9.07407 6.40493 9.06473 6.44023 9.0468C6.47552 9.02888 6.50609 9.00288 6.52944 8.97091L9.85132 4.39747C9.91069 4.31466 9.85132 4.19904 9.74976 4.19904H8.88726C8.80757 4.19904 8.73101 4.2381 8.68413 4.30216L6.32632 7.54904L5.31538 6.15685Z" fill="black" fill-opacity="0.85"/>
</g>
</g>
<defs>
<clipPath id="clip0_1420_26706">
<rect width="14" height="14" fill="white" transform="translate(0 0.0710449)"/>
</clipPath>
<clipPath id="clip1_1420_26706">
<rect width="14" height="14" fill="white" transform="translate(0 0.0710449)"/>
</clipPath>
</defs>
</svg>
