<svg width="14" height="66" viewBox="0 0 14 66" fill="none" xmlns="http://www.w3.org/2000/svg">
<path d="M0 0L14 8V58L0 66V0Z" fill="white"/>
<path d="M9.24982 29.3282V28.3619C9.24982 28.2782 9.15357 28.2319 9.08857 28.2832L3.45357 32.6844C3.4057 32.7217 3.36696 32.7693 3.34031 32.8238C3.31366 32.8783 3.2998 32.9381 3.2998 32.9988C3.2998 33.0594 3.31366 33.1193 3.34031 33.1738C3.36696 33.2283 3.4057 33.2759 3.45357 33.3132L9.08857 37.7144C9.15482 37.7657 9.24982 37.7194 9.24982 37.6357V36.6694C9.24982 36.6082 9.22107 36.5494 9.17357 36.5119L4.67357 32.9994L9.17357 29.4857C9.22107 29.4482 9.24982 29.3894 9.24982 29.3282Z" fill="black" fill-opacity="0.45"/>
</svg>