<svg width="14" height="66" viewBox="0 0 14 66" fill="none" xmlns="http://www.w3.org/2000/svg">
<path d="M0 0L14 8V58L0 66V0Z" fill="white"/>
<path d="M9.77086 32.6853L4.13586 28.284C4.12114 28.2725 4.10344 28.2652 4.08481 28.2633C4.06617 28.2613 4.04735 28.2646 4.03052 28.2728C4.01368 28.281 3.9995 28.2938 3.98961 28.3097C3.97972 28.3257 3.97452 28.3441 3.97461 28.3628V29.329C3.97461 29.3903 4.00336 29.449 4.05086 29.4865L8.55086 33.0003L4.05086 36.514C4.00211 36.5515 3.97461 36.6103 3.97461 36.6715V37.6378C3.97461 37.7215 4.07086 37.7678 4.13586 37.7165L9.77086 33.3153C9.81875 33.2779 9.8575 33.2301 9.88415 33.1756C9.9108 33.121 9.92465 33.061 9.92465 33.0003C9.92465 32.9396 9.9108 32.8796 9.88415 32.825C9.8575 32.7704 9.81875 32.7227 9.77086 32.6853Z" fill="black" fill-opacity="0.45"/>
</svg>