<svg width="7" height="10" viewBox="0 0 7 10" fill="none" xmlns="http://www.w3.org/2000/svg">
<path d="M6.77135 4.68528L1.13635 0.284034C1.12162 0.272442 1.10393 0.265238 1.08529 0.263249C1.06666 0.261261 1.04784 0.264568 1.031 0.272792C1.01416 0.281016 0.999986 0.293822 0.990097 0.309741C0.980209 0.325659 0.97501 0.344044 0.975099 0.362784V1.32903C0.975099 1.39028 1.00385 1.44903 1.05135 1.48653L5.55135 5.00028L1.05135 8.51403C1.0026 8.55153 0.975099 8.61028 0.975099 8.67153V9.63778C0.975099 9.72153 1.07135 9.76778 1.13635 9.71653L6.77135 5.31528C6.81924 5.27793 6.85799 5.23014 6.88463 5.17555C6.91128 5.12097 6.92514 5.06103 6.92514 5.00028C6.92514 4.93954 6.91128 4.8796 6.88463 4.82502C6.85799 4.77043 6.81924 4.72264 6.77135 4.68528Z" fill="black" fill-opacity="0.45"/>
</svg>
